<svg width="64" height="64" viewBox="0 0 64 64" fill="none" xmlns="http://www.w3.org/2000/svg">
<path d="M45.5 33.1996C45.5 33.1996 45.6 33.1996 45.5 33.1996C47.4 33.1996 49.2 32.3996 50.5 31.0996C51.8 29.7996 52.5 27.9996 52.5 26.0996C52.5 22.1996 49.3 19.0996 45.5 19.0996C41.6 19.0996 38.5 22.2996 38.5 26.1996C38.5 28.0996 39.3 29.7996 40.6 31.1996C41.9 32.3996 43.7 33.1996 45.5 33.1996ZM45.5 20.5996C48.6 20.5996 51 23.0996 51.1 26.0996C51.1 27.5996 50.5 28.9996 49.5 29.9996C48.5 31.0996 47.1 31.5996 45.6 31.5996C44.2 31.5996 42.7 30.9996 41.7 29.9996C40.6 28.9996 40.1 27.5996 40.1 26.0996C40 23.0996 42.4 20.5996 45.5 20.5996Z" fill="#111111"/>
<path d="M59.8999 33.3V27.4L59.7999 18.9V18.8C59.7999 14.9 56.5999 11.8 52.6999 11.8L38.1999 11.9L24.2999 12C24.1999 12 24.0999 11.9 24.0999 11.9L23.8999 11.5L14.0999 11.6H13.6999L13.4999 12C13.4999 12 13.3999 12.1 13.2999 12.1H11.1999C7.19994 12.1 3.99994 15.4 4.09994 19.3L4.29994 46.9C4.29994 48.4 4.89994 49.9 5.99994 50.9C7.09994 52 8.49994 52.5 9.99994 52.5L52.8999 52.2C54.7999 52.2 56.5999 51.4 57.9999 50.1C59.3999 48.8 59.9999 47 59.9999 45.1L59.8999 33.3ZM38.1999 13.4L52.5999 13.3C55.6999 13.3 58.2999 15.8 58.2999 18.9L58.3999 27.3V33.3C58.3999 34.8 57.7999 36.2 56.7999 37.2C55.7999 38.3 54.3999 38.8 52.8999 38.9L38.3999 39C36.8999 39 35.4999 38.4 34.4999 37.4C33.3999 36.4 32.8999 35 32.7999 33.5L32.6999 19C32.5999 15.9 35.0999 13.4 38.1999 13.4ZM56.7999 49.1C55.6999 50.2 54.2999 50.8 52.7999 50.8L9.99994 51.1C8.89994 51.1 7.79994 50.7 6.99994 49.9C6.19994 49.1 5.79994 48.1 5.69994 46.9L5.49994 19.2C5.49994 16.1 7.99994 13.5 11.0999 13.5H13.3999H13.6999C13.8999 13.4 14.1999 13.3 14.4999 13L23.1999 12.9C23.3999 13.1 23.6999 13.3 23.9999 13.4H24.0999L33.8999 13.3C32.2999 14.6 31.1999 16.6 31.1999 18.9L31.2999 33.4C31.2999 35.3 32.0999 37.1 33.3999 38.4C34.6999 39.7 36.4999 40.4 38.3999 40.4C38.3999 40.4 38.3999 40.4 38.4999 40.4L52.9999 40.3C54.8999 40.3 56.6999 39.5 57.9999 38.2C58.1999 38 58.3999 37.8 58.5999 37.5V44.9C58.4999 46.6 57.8999 48 56.7999 49.1Z" fill="#111111"/>
<path d="M26.0004 18L10.8004 18.1C10.4004 18.1 10.1004 18.2 9.80039 18.5C9.50039 18.8 9.40039 19.1 9.40039 19.5L9.50039 38.6C9.50039 39 9.60039 39.3 9.90039 39.6C10.2004 39.9 10.5004 40 10.9004 40L26.1004 39.9C26.9004 39.9 27.5004 39.3 27.5004 38.5L27.4004 19.4C27.4004 18.6 26.8004 18 26.0004 18ZM25.9004 19.5L26.0004 35.1C24.6004 34.2 22.6004 33.3 21.4004 32.8L21.3004 31.8C22.2004 30.6 22.6004 29.5 22.6004 27.8C22.6004 25.1 20.9004 23.1 18.5004 23.1C16.1004 23.1 14.4004 25.1 14.4004 27.8C14.4004 29.6 14.9004 30.6 15.7004 31.8V32.8C14.3004 33.3 12.3004 34.3 11.0004 35.2L10.9004 19.6L25.9004 19.5ZM11.0004 38.4V37C11.6004 36.3 15.0004 34.5 16.6004 34C16.9004 33.9 17.1004 33.6 17.1004 33.3L17.2004 31.5C17.2004 31.3 17.2004 31.1 17.0004 31C16.2004 30 15.8004 29.2 15.8004 27.7C15.8004 25.8 16.9004 24.5 18.4004 24.5C19.9004 24.5 21.0004 25.8 21.0004 27.7C21.0004 29.3 20.6004 30.1 19.8004 30.9C19.7004 31 19.6004 31.2 19.6004 31.4L19.7004 33.1C19.7004 33.4 19.9004 33.7 20.2004 33.8C21.8004 34.4 25.0004 36 25.8004 36.7V38.1L11.0004 38.4Z" fill="#111111"/>
</svg>
