<svg width="64" height="64" viewBox="0 0 64 64" fill="none" xmlns="http://www.w3.org/2000/svg">
<mask id="mask0" mask-type="alpha" maskUnits="userSpaceOnUse" x="0" y="0" width="64" height="64">
<rect width="64" height="64" fill="#C4C4C4"/>
</mask>
<g mask="url(#mask0)">
<path fill-rule="evenodd" clip-rule="evenodd" d="M22.9483 20.6464C24.5616 16.23 28.9175 13.0791 34.0279 13.0791C40.2384 13.0791 45.3627 17.7177 45.7601 23.6479C45.8506 23.6432 45.9432 23.6405 46.0376 23.6405C49.5659 23.6405 52.4694 26.4002 52.4694 29.8494C52.4694 30.2649 52.4235 30.6724 52.3388 31.0655C56.226 31.2098 59.3766 34.2905 59.3766 38.1158C59.3766 42.0344 56.0707 45.1715 52.0536 45.1715H37.8603C37.4461 45.1715 37.1103 44.8357 37.1103 44.4215C37.1103 44.0073 37.4461 43.6715 37.8603 43.6715H52.0536C55.3003 43.6715 57.8766 41.1491 57.8766 38.1158C57.8766 35.0826 55.3003 32.5602 52.0536 32.5602C51.9142 32.5602 51.8118 32.5729 51.6756 32.5897C51.5906 32.6002 51.4925 32.6123 51.3639 32.624C51.1008 32.6479 50.8445 32.5316 50.6892 32.3179C50.534 32.1041 50.5026 31.8244 50.6067 31.5816C50.8371 31.0439 50.9694 30.4533 50.9694 29.8494C50.9694 27.2827 48.7927 25.1405 46.0376 25.1405C45.7396 25.1405 45.4521 25.1776 45.141 25.2221C44.9258 25.2528 44.7078 25.1887 44.5435 25.0462C44.3793 24.9038 44.285 24.697 44.285 24.4796V24.3909C44.285 18.9963 39.7261 14.5791 34.0279 14.5791C29.2552 14.5791 25.2787 17.7034 24.1227 21.8939C24.0621 22.1135 23.905 22.2936 23.6958 22.3835C23.4865 22.4734 23.2477 22.4634 23.0467 22.3562C21.8113 21.6973 20.3944 21.3081 18.8988 21.3081C14.0473 21.3081 10.1792 25.0566 10.1792 29.6489C10.1792 30.9221 10.5019 32.1226 11.0582 33.235C11.1679 33.4545 11.1633 33.7137 11.046 33.9291C10.9287 34.1446 10.7134 34.289 10.4695 34.3159C7.99021 34.5892 6.12402 36.5889 6.12402 38.9625C6.12402 41.5292 8.30071 43.6715 11.0558 43.6715H26.4522C26.8665 43.6715 27.2022 44.0073 27.2022 44.4215C27.2022 44.8357 26.8665 45.1715 26.4522 45.1715H11.0558C7.5275 45.1715 4.62402 42.4118 4.62402 38.9625C4.62402 36.1045 6.62311 33.7312 9.31938 33.0099C8.91331 31.9619 8.67924 30.8371 8.67924 29.6489C8.67924 24.1701 13.2781 19.8081 18.8988 19.8081C20.3373 19.8081 21.7091 20.1146 22.9483 20.6464ZM32.7505 31.4777L37.3405 35.8932C37.639 36.1803 38.1138 36.1711 38.401 35.8726C38.6881 35.5741 38.6789 35.0993 38.3804 34.8121L32.5204 29.1749C32.2304 28.896 31.772 28.8956 31.4815 29.174L25.5992 34.8112C25.3002 35.0978 25.2901 35.5725 25.5767 35.8716C25.8633 36.1706 26.338 36.1807 26.6371 35.8941L31.2505 31.473V50.1703C31.2505 50.5845 31.5863 50.9203 32.0005 50.9203C32.4147 50.9203 32.7505 50.5845 32.7505 50.1703V31.4777Z" fill="#111111"/>
</g>
</svg>
