<svg width="48" height="48" viewBox="0 0 48 48" fill="none" xmlns="http://www.w3.org/2000/svg">
<path d="M24.75 12.75C24.75 13.1642 24.4142 13.5 24 13.5C23.5858 13.5 23.25 13.1642 23.25 12.75C23.25 12.3358 23.5858 12 24 12C24.4142 12 24.75 12.3358 24.75 12.75Z" fill="#111111"/>
<path fill-rule="evenodd" clip-rule="evenodd" d="M8.25 9.75C7.00736 9.75 6 10.7574 6 12V33C6 33.263 6.04512 33.5154 6.12803 33.75H4.875C3.83947 33.75 3 34.5895 3 35.625C3 36.6605 3.83947 37.5 4.875 37.5H43.125C44.1605 37.5 45 36.6605 45 35.625C45 34.5895 44.1605 33.75 43.125 33.75H41.872C41.9549 33.5154 42 33.263 42 33V12C42 10.7574 40.9926 9.75 39.75 9.75H8.25ZM39.75 33.75C40.1642 33.75 40.5 33.4142 40.5 33V32.25H7.5V33C7.5 33.4142 7.83579 33.75 8.25 33.75H39.75ZM7.5 30.75V12C7.5 11.5858 7.83579 11.25 8.25 11.25H39.75C40.1642 11.25 40.5 11.5858 40.5 12V30.75H7.5ZM4.875 35.25C4.66789 35.25 4.5 35.4179 4.5 35.625C4.5 35.8321 4.66789 36 4.875 36H43.125C43.3321 36 43.5 35.8321 43.5 35.625C43.5 35.4179 43.3321 35.25 43.125 35.25H4.875Z" fill="#111111"/>
</svg>
